<?xml version="1.0" encoding="UTF-8"?>
<svg id="Layer_1" data-name="Layer 1" xmlns="http://www.w3.org/2000/svg" viewBox="0 0 666.67 733.33">
  <defs>
    <style>
      .cls-1 {
        fill-rule: evenodd;
      }
    </style>
  </defs>
  <path class="cls-1" d="M650.24,171.27c-.25-.15-.5-.29-.75-.43L349.52,4.19c-10.07-5.59-22.31-5.59-32.37,0L17.15,170.86l-.24.4h-.48c-10.18,6-16.43,16.93-16.43,28.74v333.33c0,12.11,6.56,23.26,17.15,29.14l299.59,166.44c10.12,5.81,22.56,5.91,32.78.23l17.26-9.59v-76.26l-.11.06v-257.07l233.33-129.63v257.07l-136.59,75.88v76.26l186.11-103.39c10.58-5.88,17.15-17.03,17.15-29.14V200c0-11.81-6.25-22.74-16.43-28.73ZM300,643.35l-233.33-129.63v-257.07l233.33,129.63v257.07ZM333.34,328.53L101.97,200l231.36-128.53,231.36,128.53-231.36,128.53Z"/>
  <path class="cls-1" d="M455.95,528.64c-10.93,0-19.82-8.89-19.82-19.83v-78.82c0-7.16,3.88-13.78,10.13-17.28l58.8-32.95c2.97-1.66,6.31-2.54,9.67-2.54,10.92,0,19.82,8.89,19.83,19.81l.04,78.98c0,7.18-3.89,13.82-10.17,17.32l-58.85,32.79c-2.96,1.65-6.29,2.52-9.63,2.52Z"/>
</svg>